<svg xmlns="http://www.w3.org/2000/svg" viewBox="0 0 668.98 85.04"><defs><style>      .cls-1 {        fill: none;      }      .cls-2 {        fill: #fff;      }    </style></defs><g id="Eurotempest"><g><path class="cls-2" d="M102.11,28.69c0-2.81,0-4.72-.06-7.02h41.81v7.87c-8.49-.06-19.16-.06-26.47-.06h-5.84v8.04h29.95v7.53c-11.13-.06-14.72-.06-20.91-.06h-9.05v8.77h7.31c7.59,0,19.67,0,25.96-.06v7.87h-42.77c.06-2.59.06-4.95.06-9.05v-23.83Z"></path><path class="cls-2" d="M197.35,28.8v4.27c0,2.92.06,6.91.06,11.8,0,13.15-4.38,17.48-24.17,17.48s-24.17-4.27-24.17-17.48c0-4.89.06-8.94.06-11.86v-4.27c0-2.87,0-5.17-.06-7.08h9.55c-.06,1.97-.06,4.38-.06,7.08v15.45c0,7.87,2.19,9.72,14.67,9.72s14.67-1.85,14.67-9.72v-15.45c0-2.75,0-5.17-.06-7.08h9.55c-.06,1.91-.06,4.21-.06,7.14Z"></path><path class="cls-2" d="M203.93,28.69c0-2.81,0-4.72-.06-7.02h29.28c13.77,0,18.32,3.2,18.32,12.87v.17c0,6.97-2.42,10.85-9.5,12.53,1.24,1.63,2.53,3.37,3.77,5.23,1.91,2.92,4.05,5.96,6.24,9.1h-10.85c-1.41-2.3-3.09-4.78-4.89-7.31l-3.82-5.34h-19.05v3.6c0,4.38,0,6.29.06,9.05h-9.55c.06-2.59.06-4.95.06-9.05v-23.83ZM213.37,29.64v11.41h19.44c7.08,0,8.94-1.85,8.94-5.9v-.11c0-3.93-1.85-5.4-8.94-5.4h-19.44Z"></path><path class="cls-2" d="M255.15,42.51v-1.8c0-15.17,4.89-19.84,25.29-19.84s25.35,4.66,25.35,19.84v1.8c0,15.12-4.89,19.84-25.35,19.84s-25.29-4.72-25.29-19.84ZM296.12,41.84v-.45c0-9.72-2.14-12.08-15.68-12.08s-15.62,2.53-15.62,12.08v.45c0,9.72,2.19,12.08,15.62,12.08s15.68-2.36,15.68-12.08Z"></path><path class="cls-2" d="M328.36,30.15h-5.28c-4.33,0-10.62,0-14.56.06v-8.54h49.17v8.54c-3.99-.06-7.87-.06-10.12-.06h-9.78v22.37c0,4.38,0,6.24.06,9.05h-9.55c.06-2.64.06-4.95.06-9.05v-22.37Z"></path><path class="cls-2" d="M361.97,28.69c0-2.81,0-4.72-.06-7.02h41.81v7.87c-8.49-.06-19.16-.06-26.47-.06h-5.84v8.04h29.95v7.53c-11.13-.06-14.72-.06-20.91-.06h-9.05v8.77h7.31c7.59,0,19.67,0,25.96-.06v7.87h-42.77c.06-2.59.06-4.95.06-9.05v-23.83Z"></path><path class="cls-2" d="M409.8,52.74v-23.94c0-2.87,0-4.72-.06-7.14h15.85l7.14,17.81c1.85,4.78,3.71,9.84,5.17,14.11h.23c1.52-4.27,3.32-9.27,5.17-13.99l7.31-17.93h15.29c-.06,2.42-.06,4.27-.06,7.08v23.88c0,3.93,0,6.29.06,8.94h-9.55c.06-4.44.06-9.39.06-13.88,0-3.37.06-11.58.11-17.59h0c-1.8,4.38-4.05,9.83-6.24,15.01l-6.91,16.47h-11.24l-7.02-16.63c-2.14-5.17-4.38-10.51-6.24-14.84h0c.06,5.28.11,12.7.11,17.87,0,3.93,0,9.1.06,13.6h-9.27c.06-2.59.06-4.95.06-8.82Z"></path><path class="cls-2" d="M481.3,61.56h-9.55c.06-2.59.06-5.06.06-8.99v-21.47c0-4.1,0-6.86-.06-9.44h28.89c14.44,0,18.32,3.76,18.32,13.94v.22c0,10.12-3.88,14.11-18.32,14.11h-19.39v2.81c0,3.82,0,6.18.06,8.82ZM481.25,29.7v12.14h19.28c6.86,0,8.71-1.57,8.71-6.07v-.11c0-4.44-1.85-5.96-8.71-5.96h-19.28Z"></path><path class="cls-2" d="M523.53,28.69c0-2.81,0-4.72-.06-7.02h41.81v7.87c-8.49-.06-19.16-.06-26.47-.06h-5.84v8.04h29.95v7.53c-11.13-.06-14.72-.06-20.91-.06h-9.05v8.77h7.31c7.59,0,19.67,0,25.96-.06v7.87h-42.77c.06-2.59.06-4.95.06-9.05v-23.83Z"></path><path class="cls-2" d="M569.97,49.71v-.62l9.33-.17v1.18c0,3.76,1.91,4.55,15.45,4.55,12.14,0,13.32-1.07,13.32-4.21v-.11c0-2.92-1.52-4.1-16.07-5.06-18.71-1.18-21.75-3.82-21.75-12.31s3.43-12.08,22.37-12.08c20.46,0,23.21,3.65,23.21,12.19v.51l-9.33.23v-1.12c0-3.09-1.85-4.16-13.83-4.16-11.3,0-12.87,1.07-12.87,3.88,0,2.98,1.29,3.88,15.9,4.78,18.94,1.24,21.86,4.72,21.86,12.81,0,8.71-3.2,12.36-22.7,12.36-21.19,0-24.9-2.47-24.9-12.64Z"></path><path class="cls-2" d="M639.64,30.15h-5.28c-4.33,0-10.62,0-14.55.06v-8.54h49.17v8.54c-3.99-.06-7.87-.06-10.12-.06h-9.78v22.37c0,4.38,0,6.24.06,9.05h-9.55c.06-2.64.06-4.95.06-9.05v-22.37Z"></path></g></g><g id="Icon"><g><path class="cls-2" d="M85.04,40.24V0h-40.14c15.86,10.67,29.51,24.36,40.14,40.24Z"></path><path class="cls-1" d="M85,85.04h.04v-44.79C74.41,24.36,60.76,10.67,44.9,0H.32c40.55,12.35,72.5,44.42,84.68,85.04Z"></path><path class="cls-2" d="M.32,0h-.32v85.04h85C72.82,44.42,40.87,12.35.32,0Z"></path></g></g></svg>