<svg xmlns="http://www.w3.org/2000/svg" viewBox="0 0 187.06 244.07"><defs><style>      .cls-1 {        fill: #1d1d1b;      }      .cls-2 {        fill: #fff;      }      .cls-3 {        fill: #e30613;      }    </style></defs><g id="Eurotempest"><g><g><path class="cls-2" d="M10.3,227.35h-2.74c-2.25,0-5.51,0-7.55.03v-4.43h25.52v4.43c-2.07-.03-4.08-.03-5.25-.03h-5.07v11.61c0,2.28,0,3.24.03,4.7h-4.96c.03-1.37.03-2.57.03-4.7v-11.61Z"></path><path class="cls-2" d="M27.74,226.6c0-1.46,0-2.45-.03-3.65h21.7v4.08c-4.4-.03-9.95-.03-13.74-.03h-3.03v4.17h15.54v3.91c-5.77-.03-7.64-.03-10.85-.03h-4.7v4.55h3.79c3.94,0,10.21,0,13.47-.03v4.08h-22.19c.03-1.34.03-2.57.03-4.7v-12.37Z"></path><path class="cls-2" d="M52.56,239.08v-12.42c0-1.49,0-2.45-.03-3.7h8.22l3.7,9.24c.96,2.48,1.92,5.1,2.68,7.32h.12c.79-2.22,1.72-4.81,2.68-7.26l3.79-9.3h7.93c-.03,1.25-.03,2.22-.03,3.67v12.39c0,2.04,0,3.27.03,4.64h-4.96c.03-2.3.03-4.87.03-7.2,0-1.75.03-6.01.06-9.13h0c-.93,2.27-2.1,5.1-3.24,7.79l-3.59,8.54h-5.83l-3.65-8.63c-1.11-2.68-2.28-5.45-3.24-7.7h0c.03,2.74.06,6.59.06,9.27,0,2.04,0,4.72.03,7.06h-4.81c.03-1.34.03-2.57.03-4.58Z"></path><path class="cls-2" d="M89.66,243.66h-4.96c.03-1.34.03-2.62.03-4.67v-11.14c0-2.13,0-3.56-.03-4.9h14.99c7.5,0,9.51,1.95,9.51,7.23v.12c0,5.25-2.01,7.32-9.51,7.32h-10.06v1.46c0,1.98,0,3.21.03,4.58ZM89.64,227.12v6.3h10c3.56,0,4.52-.82,4.52-3.15v-.06c0-2.3-.96-3.09-4.52-3.09h-10Z"></path><path class="cls-2" d="M111.58,226.6c0-1.46,0-2.45-.03-3.65h21.7v4.08c-4.4-.03-9.94-.03-13.74-.03h-3.03v4.17h15.54v3.91c-5.77-.03-7.64-.03-10.85-.03h-4.7v4.55h3.79c3.94,0,10.21,0,13.47-.03v4.08h-22.19c.03-1.34.03-2.57.03-4.7v-12.37Z"></path><path class="cls-2" d="M135.68,237.5v-.32l4.84-.09v.61c0,1.95.99,2.36,8.02,2.36,6.3,0,6.91-.55,6.91-2.19v-.06c0-1.52-.79-2.13-8.34-2.62-9.71-.61-11.29-1.98-11.29-6.39s1.78-6.27,11.61-6.27c10.62,0,12.04,1.9,12.04,6.33v.26l-4.84.12v-.58c0-1.6-.96-2.16-7.17-2.16-5.86,0-6.68.55-6.68,2.01,0,1.55.67,2.01,8.25,2.48,9.83.64,11.34,2.45,11.34,6.65,0,4.52-1.66,6.42-11.78,6.42-10.99,0-12.92-1.28-12.92-6.56Z"></path><path class="cls-2" d="M171.83,227.35h-2.74c-2.25,0-5.51,0-7.55.03v-4.43h25.52v4.43c-2.07-.03-4.08-.03-5.25-.03h-5.07v11.61c0,2.28,0,3.24.03,4.7h-4.96c.03-1.37.03-2.57.03-4.7v-11.61Z"></path></g><g><path class="cls-2" d="M.05,183.08c0-2.58,0-4.33-.05-6.45h38.39v7.22c-7.79-.05-17.6-.05-24.3-.05h-5.37v7.38h27.5v6.91c-10.22-.05-13.52-.05-19.19-.05h-8.31v8.05h6.71c6.97,0,18.06,0,23.84-.05v7.22H0c.05-2.37.05-4.54.05-8.31v-21.88Z"></path><path class="cls-2" d="M87.5,183.19v3.92c0,2.68.05,6.35.05,10.84,0,12.07-4.02,16.05-22.19,16.05s-22.19-3.92-22.19-16.05c0-4.49.05-8.2.05-10.89v-3.92c0-2.63,0-4.75-.05-6.5h8.77c-.05,1.81-.05,4.02-.05,6.5v14.19c0,7.22,2.01,8.93,13.47,8.93s13.47-1.7,13.47-8.93v-14.19c0-2.53,0-4.75-.05-6.5h8.77c-.05,1.75-.05,3.87-.05,6.55Z"></path><path class="cls-2" d="M93.54,183.08c0-2.58,0-4.33-.05-6.45h26.88c12.64,0,16.82,2.94,16.82,11.82v.16c0,6.4-2.22,9.96-8.72,11.51,1.13,1.5,2.32,3.1,3.46,4.8,1.75,2.68,3.72,5.47,5.73,8.36h-9.96c-1.29-2.12-2.84-4.39-4.49-6.71l-3.51-4.9h-17.49v3.3c0,4.03,0,5.78.05,8.31h-8.77c.05-2.37.05-4.54.05-8.31v-21.88ZM102.21,183.96v10.47h17.85c6.5,0,8.2-1.7,8.2-5.42v-.1c0-3.61-1.7-4.95-8.2-4.95h-17.85Z"></path><path class="cls-2" d="M140.57,195.78v-1.65c0-13.93,4.49-18.21,23.22-18.21s23.27,4.28,23.27,18.21v1.65c0,13.88-4.49,18.21-23.27,18.21s-23.22-4.33-23.22-18.21ZM178.18,195.16v-.41c0-8.93-1.96-11.09-14.4-11.09s-14.34,2.32-14.34,11.09v.41c0,8.93,2.01,11.09,14.34,11.09s14.4-2.17,14.4-11.09Z"></path></g></g></g><g id="Icon"><g><path class="cls-1" d="M171.48,73.78V0h-73.59c29.07,19.56,54.1,44.66,73.59,73.78Z"></path><path class="cls-2" d="M171.4,155.91h.08v-82.12C151.99,44.66,126.96,19.56,97.89,0H16.16c74.34,22.64,132.91,81.43,155.24,155.91Z"></path><path class="cls-3" d="M16.16,0h-.59v155.91h155.82C149.07,81.43,90.5,22.64,16.16,0Z"></path></g></g></svg>